<svg width="4005" height="2131" viewBox="0 0 4005 2131" fill="none" xmlns="http://www.w3.org/2000/svg">
<path d="M3864 101C3794.88 132.84 3604.16 312.84 3427.12 513.8C3350.86 600.359 3261.76 692.68 3192.24 738.2C3163.29 757.155 2901.12 757 2525.2 759.64C2326.88 761.033 2200.64 836.68 2077.84 903.32C1886.83 1006.97 1821.76 1124.68 1741.6 1202.04C1710.12 1232.42 1682.88 1274.12 1637.68 1306.12C1534.71 1379.02 1352.64 1215.88 1205.84 1207.64C1119.64 1202.8 1027.2 1263.56 946.96 1303.48C852.723 1350.36 787.2 1439.24 683.04 1522.04C602.888 1585.76 552.32 1631.56 488.24 1679.48C428.837 1723.9 360.32 1780.68 296.24 1826.2C240.604 1865.72 184.32 1903.56 122.88 1956.76C107.037 1970.48 98.88 1988.68 101.36 1988.92C194.011 1997.89 327.68 1946.44 580.32 1938.36C701.794 1934.47 786.24 1914.44 1062.88 1911.64C1271.62 1909.53 1463.68 1935.56 1601.92 1954.28C1850.97 1988.01 2086.08 1973 2305.76 1959.72C2679.24 1937.14 2754.24 1941 2887.28 1927.72C3142.7 1902.22 3218.24 1898.44 3646.32 1890.36C3784.46 1887.75 3831.84 1871.72 3858.48 1855.8C3871.49 1848.02 3874.56 1829.32 3872 1813.24C3860.92 1743.66 3821.44 1664.2 3813.36 1536.12C3808.17 1453.91 3773.44 1370.76 3765.36 1258.76C3758.75 1167.14 3741.44 1093.32 3738.64 548.52C3737.71 366.923 3778.56 293.32 3805.2 253C3864.35 163.472 3858.56 436.68 3877.28 529.88C3893.47 610.475 3885.28 682.12 3893.28 830.28C3926.42 1443.95 3880 1540.36 3850.8 1620.76C3827.43 1685.1 3816 1748.68 3784.16 1812.76C3767.09 1847.12 3736.16 1871.56 3701.6 1887.56C3630.66 1920.4 3560.32 1909 3456.4 1948.84C3386.72 1975.55 3320.32 1999.56 3253.6 2018.28C3173.58 2040.73 3096.32 2026.44 2992.4 2018.36C2919.16 2012.67 2856.32 1994.44 2454.96 1991.64C2232.4 1990.09 1945.28 1973.32 1789.76 1941.08C1673.85 1917.05 1523.2 1914.44 1389.84 1914.28C1278.2 1914.15 1071.04 1957 912.4 1970.28C883.017 1972.74 846.08 1973 819.12 1965.08C792.16 1957.16 776.32 1941.32 768.16 1912.04C748.835 1842.7 781.12 1728.36 826.32 1611.16C880.256 1471.31 1010.24 1455.88 1093.04 1447.64C1163.64 1440.61 1223.68 1503.56 1314.32 1514.28C1336.32 1516.88 1351.68 1530.12 1359.84 1548.76C1368 1567.4 1368 1593.8 1344.24 1631.16C1284.76 1724.69 1202.88 1775.56 1157.68 1796.84C975.192 1882.75 680.32 1818.44 594.96 1799.8C574.514 1795.34 573.44 1760.2 578.64 1741.32C599.181 1666.74 727.36 1631.88 810.4 1618.36C975.953 1591.41 1297.6 1626.12 1399.76 1674.12C1420.29 1683.77 1431.68 1711.24 1418.72 1730.04C1307.87 1890.84 1000.32 1679.88 954.72 1653.08C714.992 1512.19 1714.56 1615.88 1722.64 1575.96C1739.11 1494.58 1592.32 1482.44 1514.96 1450.44C1453.23 1424.91 1384.32 1471.56 1277.76 1508.84C1250.44 1518.4 1229.76 1530.12 1218.88 1551.4C1208 1572.68 1208 1604.36 1218.56 1628.6C1229.12 1652.84 1250.24 1668.68 1269.04 1679.48C1387.95 1747.79 1607.68 1690.44 1669.12 1650.52C1700.81 1629.93 1704 1589.16 1701.36 1557.24C1695.95 1491.81 1608.32 1434.76 1528.32 1378.52C1450.68 1323.94 1384.32 1295.88 1214 1287.64C1159.8 1285.02 1128.16 1306.28 1093.6 1324.84C1047.23 1349.74 1021.44 1396.84 1005.44 1444.6C980.146 1520.1 1015.84 1594.12 1053.04 1631.4C1173.05 1751.67 1468.48 1743.56 1634.08 1743.72C1813.83 1743.89 2002.24 1674.44 2119.44 1661.08C2222.26 1649.36 2295.84 1605.16 2325.12 1565.32C2396.13 1468.7 2370.56 1354.76 2381.36 1112.6C2383.66 1060.95 2360.32 1045.32 2344.24 1034.52C2268.58 983.704 2072.96 1097.8 1970.96 1151.48C1860.28 1209.73 1789.76 1295.24 1712.24 1367.4C1695.34 1383.13 1693.44 1407.24 1696 1428.68C1707.23 1522.7 1873.92 1562.12 1978.32 1591.56C2076.22 1619.17 2167.36 1684.68 2253.04 1732.84C2298.62 1758.46 2375.52 1765 2455.44 1757.08C2508.95 1751.78 2535.84 1701.16 2565.12 1656.04C2582.66 1629.01 2589.12 1584.52 2586.64 1546.92C2584.16 1509.32 2568.32 1477.64 2502.08 1450.76C2327.31 1379.84 2120.8 1381 1990.24 1391.56C1937.98 1395.79 1917.76 1423.24 1906.88 1442.04C1865.88 1512.88 1848 1604.68 1866.56 1687.32C1872.12 1712.08 1885.12 1737.8 1898.48 1759.32C1911.84 1780.84 1927.68 1796.68 1967.52 1804.84C2163.62 1845.01 2327.04 1770.44 2691.92 1762.36C2888.68 1758 2972.8 1711.88 3068.88 1695.72C3251.62 1664.98 3319.84 1631.72 3346.48 1607.88C3439.72 1524.44 3272.32 1375.88 3221.52 1319.88C3159.46 1251.46 2921.6 1194.76 2736.64 1167.72C2612.48 1149.57 2499.04 1141 2429.84 1151.56C2300.95 1171.23 2237.76 1300.68 2178.88 1380.68C2107.32 1477.9 2034.72 1524.84 2037.28 1551.48C2050.38 1687.75 2428.48 1551.88 2586.16 1450.76C2641.85 1415.05 2653.28 1359.88 2661.28 1309.4C2671.67 1243.84 2642.88 1178.6 2600.32 1130.68C2534.24 1056.28 2382.4 1061 2248.4 1079.56C2192.59 1087.29 2152.16 1114.28 2122.88 1132.84C2053.25 1176.98 2061.44 1258.12 2053.36 1295.4C2049.9 1311.38 2071.68 1322.12 2090.4 1327.56C2190.12 1356.54 2322.24 1317 2471.2 1261.32C2747.51 1158.04 2855.36 1119.88 2991.52 1050.6C3079.02 1006.08 3164.8 997 3236.88 991.72C3256.82 990.26 3240.32 975.88 3224.24 967.8C3145.13 928.047 3021.76 933 2946.96 919.72C2852.03 902.866 2617.92 901 2469.6 916.92C2428.6 921.321 2392.16 933 2357.6 938.28C2338.37 941.218 2317.76 954.12 2330.64 964.84C2458.56 1071.31 2716.16 1044.68 3001.6 1087.56C3068.27 1097.58 3121.6 1093 3132.96 1098.28C3202.9 1130.79 2973.76 1098.44 2790.08 1114.2C2653.82 1125.89 2600.32 1231.24 2536.24 1298.12C2508.61 1326.96 2440.48 1391.08 2368.48 1494.92C2338.91 1537.57 2344 1572.36 2354.56 1593.96C2407.06 1701.35 2636.8 1626.44 2778 1591.8C3010.44 1534.78 3143.68 1530.44 3236.96 1503.8C3262.34 1496.55 3282.24 1477.32 3261.44 1463.88C3062.79 1335.52 2718.72 1450.12 2586.96 1490.2C2567.38 1496.16 2552.32 1503.56 2544.16 1514.2C2536 1524.84 2536 1540.68 2567.68 1554.12C2657.92 1592.4 2743.84 1589 2786.32 1583.72C2910.35 1568.3 3009.92 1456.2 3050.64 1381.24C3066.34 1352.34 3064 1306.6 3058.72 1256.04C3056.15 1231.44 3042.88 1210.76 3011.04 1199.88C2859.39 1148.06 2755.2 1236.68 2664.32 1258.28C2642.84 1263.39 2621.76 1274.12 2610.88 1290.12C2600 1306.12 2600 1327.24 2610.56 1343.4C2688.76 1463.07 2935.84 1370.44 2962.48 1343.88C2991.13 1315.32 2984 1263.88 2973.44 1221.32C2967.68 1198.12 2941.76 1178.76 2922.96 1165.24C2904.16 1151.72 2888.32 1146.44 2874.88 1151.64C2861.44 1156.84 2850.88 1172.68 2853.36 1191.4C2876.07 1362.83 3228.8 1423.56 3303.76 1442.28C3402.61 1466.97 3527.84 1391.72 3551.84 1365.24C3634.69 1273.83 3597.12 1146.76 3623.92 1048.04C3662.46 906.058 3634.72 719.88 3613.52 687.88C3602.87 671.805 3571.2 677 3549.68 682.28C3430.75 711.461 3309.76 868.68 3258.8 935.4C3233.29 968.794 3240 1039.24 3253.2 1103.24C3258.34 1128.17 3292.8 1125 3314.32 1122.36C3403.86 1111.37 3548.48 1008.2 3634.48 933.24C3695.72 879.859 3688 731.08 3650.88 645.24C3641.88 624.419 3613.76 613.32 3594.96 607.8C3530.67 588.924 3443.2 644.68 3370.88 695.48C3339.95 717.206 3325.44 777.96 3325.28 841.88C3325.21 870.776 3367.36 884.68 3399.52 887.56C3521.56 898.489 3591.68 810.44 3639.84 743.96C3684.76 681.946 3688 571.08 3677.44 459.08C3673.73 419.737 3645.76 421 3624.32 423.64C3602.88 426.28 3581.76 431.56 3560.32 447.48C3407.68 560.822 3421.44 852.68 3384.16 945.88C3323.55 1097.42 3298.88 1262.6 3256.16 1378.04C3242.05 1416.17 3208.16 1444.84 3194.72 1471.48C3157.35 1545.55 3489.28 1408.2 3663.52 1346.52C3694.13 1335.68 3714.24 1317.32 3725.12 1290.68C3736 1264.04 3736 1227.08 3728.08 1200.12C3720.16 1173.16 3704.32 1157.32 3688.24 1149.16C3615.97 1112.49 3507.04 1125 3445.76 1132.92C3349.7 1145.34 3373.44 1364.36 3370.64 1444.76C3367.85 1524.86 3495.36 1657.48 3618.24 1740.84C3641.49 1756.61 3666.24 1749 3685.04 1741.08C3703.84 1733.16 3719.68 1717.32 3727.84 1698.6C3758.8 1627.58 3693.44 1557.32 3674.72 1461.4C3669.56 1434.96 3672 1408.2 3664.08 1394.6C3656.16 1381 3640.32 1381 3624.24 1388.92C3527.67 1436.48 3501.44 1599.24 3469.52 1674.04C3444.47 1732.73 3320.8 1749 3208.72 1751.64C3175.74 1752.42 3191.68 1759.56 3210.4 1759.64C3293.8 1760 3367.68 1727.88 3445.04 1693.16C3532.24 1654.02 3512 1530.76 3522.64 1458.6C3535.69 1370.13 3485.44 1295.88 3458.88 1261.24C3446.13 1244.62 3421.76 1242.44 3405.6 1252.92C3389.44 1263.4 3378.88 1289.8 3384 1332.44C3416.09 1599.68 3666.24 1780.68 3719.84 1844.76C3744.45 1874.19 3767.84 1903.56 3786.56 1927.48C3794.98 1938.24 3778.88 1956.68 3765.52 1970.12C3705.8 2030.2 3581.76 1983.88 3393.44 1959.72C3008.27 1910.31 2717.6 1951.72 2669.68 1941.08C2508.27 1905.24 2237.76 1914.44 2115.12 1906.36C1866.1 1889.95 1437.76 1882.44 1368.24 1879.64C1282.07 1876.17 1176.32 1903.56 1106.96 1911.64C979.366 1926.5 840.32 1935.56 773.6 1943.64C680.052 1954.97 584.32 1967.56 485.6 1975.64C366.37 1985.4 807.68 1978.44 1084.24 1975.64C1198.64 1974.48 1271.68 2015.56 1542.88 2018.36C1689.03 2019.87 1751.68 1989 1847.52 1973.08C1937.6 1962.44 2013.12 1951.72 2053.04 1938.44C2071.84 1930.44 2087.68 1919.88 2104 1909" stroke="white" stroke-width="200" stroke-linecap="round"/>
</svg>
