<svg width="2934" height="751" viewBox="0 0 2934 751" fill="none" xmlns="http://www.w3.org/2000/svg">
<path d="M383 585C467.48 595.56 685.24 606.28 1046.92 611.64C1234.34 614.418 1429.72 606.44 1617.48 606.36C1979.52 606.206 2227.64 606.44 2350.12 590.44C2520.54 568.178 2659.8 542.44 2740.04 521.08C2761.32 515.415 2787.8 510.44 2806.68 494.52C2825.56 478.6 2836.12 452.2 2833.64 422.76C2823.11 297.721 2719.32 233.32 2647.32 201.08C2508.79 139.051 2303.64 248.68 2223.24 283.56C2156.38 312.566 2111.16 339.56 2079.24 342.36C1983.42 350.765 1935.32 243.88 1857.96 203.8C1794.91 171.135 1727.32 147.88 1663.24 134.36C1597.94 120.583 1514.2 94.4402 1314.52 102.2C1119.34 109.786 1071.32 222.12 993.96 280.76C956.421 309.215 927.16 339.56 882.04 355.56C753.619 401.1 660.76 318.44 362.84 315.64C237.769 314.465 164.76 355.56 105.8 395.48C93.8301 403.585 105.56 424.68 118.84 435.48C186.183 490.247 286.68 483.56 379.96 520.84C426.418 539.408 468.12 563.56 613.64 579.56C963.017 617.974 1246.52 579.72 1326.44 569.08C1375.41 562.561 1412.12 547.72 1452.04 537.08C1470.93 532.045 1486.68 526.44 1468.44 518.44C1317.29 452.147 1146.52 499.56 1026.04 507.64C937.073 513.607 842.2 531.56 767.24 539.64C639.84 553.373 447.32 542.44 351.56 523.72C304.611 514.542 224.6 521 191.72 521C158.84 521 174.68 521 193.4 531.56C307.558 595.957 462.68 595.56 553.32 614.28C626.992 629.496 723.8 633 859.64 646.28C1101.7 669.944 1240.6 601.32 1342.76 582.36C1407.12 570.416 1534.04 547.88 1707.32 523.72C1966.43 487.593 2174.68 515.72 2262.28 507.72C2504.75 485.577 2574.84 467.72 2601.48 451.8C2614.49 444.023 2617.56 425.32 2609.72 414.52C2564.68 352.47 2241.56 377 1834.84 331.88C1700.59 316.988 1620.76 270.44 1312.2 267.64C1185.2 266.488 1103.32 329 1055.08 371.48C1046.97 378.619 1070.68 387.56 1089.4 387.64C1173.64 388 1288.92 361 1414.52 347.72C1576.36 330.609 1705.24 371.56 1758.92 390.28C1804.64 406.226 1636.76 409 1443 422.28C1113.36 444.873 863.32 419.72 804.76 409.08C629.4 393 399.16 387.72 367.24 379.72C351.16 377 335.32 377 319 377" stroke="white" stroke-width="200" stroke-linecap="round"/>
</svg>
