<svg width="3812" height="1173" viewBox="0 0 3812 1173" fill="none" xmlns="http://www.w3.org/2000/svg">
<path d="M227 483C253.56 451.32 348.92 281.4 440.04 176.6C480.848 129.665 546.68 109.72 605.24 101.72C652.874 95.2126 696.12 109.56 733.4 133.48C824.817 192.137 872.12 338.68 922.76 405.4C994.097 499.39 1111.8 530.68 1282.36 549.64C1389.57 561.558 1495.8 552.44 1576.04 525.8C1673.55 493.426 1730.68 456.44 1858.36 424.44C2055.37 375.064 2146.68 472.12 2234.52 501.48C2444.06 571.517 2525.24 637.56 2663.8 637.72C2771.35 637.844 2845.24 536.44 2920.04 528.36C2941.44 526.049 2967.8 520.44 2989.32 523C3076.06 533.319 3149.24 653.24 3189.56 722.76C3229.73 792.022 3261.56 866.68 3298.84 933.4C3309.36 952.232 3320.12 973.24 3333.48 986.76C3401.06 1055.15 3554.68 1000.44 3698.52 1002.92C3721.82 1003.32 3709.88 1026.68 3696.52 1037.48C3636.83 1085.73 3475.96 1075 3379.24 1061.72C3347.5 1057.36 3309.88 1053.72 3267.32 1043.08C3224.76 1032.44 2944.28 1027 2536.44 1029.64C2387.3 1030.61 2355.64 1037.56 2215.24 1042.92C2074.84 1048.28 1826.68 1053.56 1601.16 1053.64C1375.64 1053.72 1180.28 1048.44 992.52 1048.36C424.574 1048.12 339.32 1043 275.24 1024.44C207.504 1004.82 152.6 968.6 112.6 912.76C93.7146 886.397 98.9996 851.64 112.2 824.76C162.997 721.318 269.24 701.88 386.52 696.28C513.353 690.224 594.68 770.68 711.88 842.76C806.469 900.934 1004.6 931 1135.88 944.28C1308.54 961.746 1437.24 973.56 1520.04 981.64C1692.14 998.434 1970.68 1005.56 2207.4 1008.36C2308.56 1009.56 2370.68 947.32 2434.76 928.36C2498.75 909.426 2573.24 877.88 2661.32 864.36C2759.86 849.234 2876.92 829.88 2962.76 805.72C2993.6 797.041 3042.68 845.24 3088.28 877.72C3174.94 939.444 3005.72 739.16 3008.28 720.44C3019.07 641.523 3165.24 808.12 3234.76 848.2C3294.06 882.391 3362.68 904.12 3439.96 928.28C3468.03 937.054 3511.48 931 3522.68 928.36C3577.18 915.514 3395.32 899 3264.84 867.16C3174.19 845.039 3107.32 771.32 3043.24 699.24C2990.01 639.371 2730.36 627 2550.04 653.56C2467.36 665.738 2382.2 685.56 2299.32 709.56C2242.94 725.885 2163.48 739 2107.32 746.92C1995.7 762.662 2470.68 803 2697.56 795.08C2839.91 790.111 2244.6 558.2 2088.68 515.08C2014.94 494.687 1939.32 488.44 1872.6 493.56C1746.13 503.265 1625.08 700.92 1586.92 792.04C1577.73 813.986 1623.8 839.8 1658.52 853.4C1810.23 912.825 1970.36 851 2117.16 837.72C2194.57 830.718 2269.24 861.56 2391.96 856.44C2411.52 855.624 2397.88 824.76 2376.6 805.96C2275.54 716.679 2115.64 739 2035.24 725.72C1949.21 711.51 1748.28 675 1587.56 725.4C1370.98 793.317 1182.52 845.56 955.8 845.72C827.232 845.811 712.76 808.44 640.6 797.72C598.192 791.42 468.12 771 302.76 778.92C247.77 781.554 253.56 802.68 264.2 818.76C287.086 853.348 349.24 888.12 431.72 920.12C558.885 969.457 684.92 877.88 810.6 851.08C890.767 833.985 946.84 803 976.12 795.08C1008.72 786.262 1021.56 733.88 1032.28 683.4C1046.22 617.734 989.88 563.16 949.96 533.88C887.11 487.782 808.76 461.88 659.56 371.32C628.547 352.496 611.32 355 589.96 368.2C491.974 428.753 499 567.48 493.56 632.36C487.312 706.866 600.28 531.16 610.92 496.6C633.926 421.872 605.72 371.16 589.8 344.52C582.022 331.506 563.32 328.44 544.6 336.28C443.543 378.603 387.32 493.24 323.24 544.2C309.155 555.401 291.32 557.56 283.16 568.2C275 578.84 275 594.68 282.92 605.48C331.156 671.257 646.2 643 879.72 653.64C1079.56 662.745 1293.24 632.44 1365.4 645.56C1448.9 660.742 1496.12 691 1528.12 683.08C1541.18 679.847 1539 659.32 1512.6 645.88C1348.23 562.199 1150.52 621.56 1075.08 658.84C967.98 711.765 1426.36 664.44 1820.12 661.64C2040.04 660.076 2210.68 685.56 2282.84 688.36C2346.54 690.832 1936.12 627.32 1524.2 626.92C1373.34 626.774 1224.76 653.56 990.6 656.36C860.546 657.915 776.76 616.44 712.52 563.24C644.839 507.191 680.44 371.32 667.08 304.6C663.089 284.669 643.32 264.76 624.6 251.24C605.88 237.72 584.76 232.44 563.32 242.92C512.725 267.651 493.72 322.84 496.28 352.12C504.12 365.56 525.24 376.12 549.32 386.84C573.4 397.56 599.8 408.12 659 419" stroke="white" stroke-width="200" stroke-linecap="round"/>
</svg>
