<svg width="355" height="318" viewBox="0 0 355 318" fill="none" xmlns="http://www.w3.org/2000/svg">
<g filter="url(#filter0_d_8_63)">
<path d="M158.682 13.2879C165.029 -4.3485 189.971 -4.34853 196.318 13.2879L224.714 92.1881C227.571 100.124 235.098 105.415 243.533 105.415L330.713 105.415C350.579 105.415 358.294 131.243 341.683 142.139L274.789 186.017C267.053 191.091 263.807 200.808 266.94 209.513L293.298 282.751C299.802 300.824 279.571 316.782 263.51 306.247L188.469 257.026C181.809 252.657 173.191 252.657 166.531 257.026L91.4897 306.247C75.4293 316.782 55.1978 300.824 61.702 282.751L88.0605 209.513C91.1933 200.808 87.9472 191.091 80.2115 186.017L13.3174 142.139C-3.29359 131.243 4.42123 105.415 24.2867 105.415L111.467 105.415C119.902 105.415 127.429 100.124 130.285 92.1881L158.682 13.2879Z" fill="#FFD675"/>
<path d="M168.091 16.6738C171.215 7.99364 183.349 7.85828 186.754 16.2676L186.909 16.6738L215.306 95.5742C219.59 107.478 230.882 115.415 243.533 115.415H330.713C340.646 115.415 344.504 128.329 336.198 133.777L269.304 177.655C257.882 185.148 252.985 199.388 257.317 212.286L257.53 212.899L283.889 286.138C287.141 295.174 277.025 303.153 268.995 297.886L193.954 248.664C184.12 242.213 171.44 242.113 161.517 248.362L161.046 248.664L86.0049 297.886C77.9746 303.153 67.8593 295.174 71.1113 286.138L97.4697 212.899C102.169 199.842 97.2997 185.266 85.6963 177.655L18.8018 133.777C10.4964 128.329 14.3544 115.415 24.2871 115.415H111.467C123.921 115.415 135.057 107.725 139.488 96.1299L139.694 95.5742L168.091 16.6738Z" stroke="#EFA733" stroke-width="20"/>
</g>
<defs>
<filter id="filter0_d_8_63" x="0.25" y="0.0605469" width="354.5" height="317.553" filterUnits="userSpaceOnUse" color-interpolation-filters="sRGB">
<feFlood flood-opacity="0" result="BackgroundImageFix"/>
<feColorMatrix in="SourceAlpha" type="matrix" values="0 0 0 0 0 0 0 0 0 0 0 0 0 0 0 0 0 0 127 0" result="hardAlpha"/>
<feOffset dy="4"/>
<feGaussianBlur stdDeviation="2"/>
<feComposite in2="hardAlpha" operator="out"/>
<feColorMatrix type="matrix" values="0 0 0 0 0 0 0 0 0 0 0 0 0 0 0 0 0 0 0.25 0"/>
<feBlend mode="normal" in2="BackgroundImageFix" result="effect1_dropShadow_8_63"/>
<feBlend mode="normal" in="SourceGraphic" in2="effect1_dropShadow_8_63" result="shape"/>
</filter>
</defs>
</svg>
